<?xml version="1.0" standalone="no"?>
<!DOCTYPE svg PUBLIC "-//W3C//DTD SVG 20010904//EN"
 "http://www.w3.org/TR/2001/REC-SVG-20010904/DTD/svg10.dtd">
<svg version="1.0" xmlns="http://www.w3.org/2000/svg"
 width="512.000000pt" height="512.000000pt" viewBox="0 0 512.000000 512.000000"
 preserveAspectRatio="xMidYMid meet">

<g transform="translate(0.000000,512.000000) scale(0.100000,-0.100000)"
fill="#000000" stroke="none">
<path d="M2330 4953 c-545 -56 -1046 -288 -1434 -663 -414 -401 -658 -889
-726 -1455 -17 -138 -15 -446 3 -580 152 -1104 1009 -1951 2112 -2086 124 -15
429 -15 550 0 453 58 878 235 1225 511 114 91 329 313 416 430 243 325 398
695 461 1100 25 161 25 538 0 700 -39 252 -110 476 -221 705 -118 240 -246
423 -431 614 -386 399 -872 640 -1441 716 -99 13 -416 18 -514 8z m59 -1825
c1 -64 8 -71 44 -46 l32 23 -23 -32 c-27 -38 -27 -38 88 -49 71 -7 73 -8 35
-15 -22 -5 -64 -12 -94 -16 l-53 -8 23 -30 c23 -28 12 -27 -23 2 -21 18 -24 8
-34 -102 -6 -66 -9 -75 -15 -50 -5 17 -11 61 -14 98 -6 63 -8 67 -23 54 -29
-24 -46 -32 -37 -16 4 8 14 21 22 31 13 15 9 17 -54 23 -37 4 -81 10 -98 14
-25 7 -19 9 40 15 39 4 83 9 98 12 l29 6 -21 22 c-30 32 -26 41 7 16 l27 -22
8 59 c4 32 11 74 14 93 l6 35 8 -40 c4 -22 8 -57 8 -77z m-799 -1703 c15 -167
13 -162 51 -133 17 13 41 30 53 38 20 15 21 14 6 -6 -8 -12 -25 -36 -38 -53
l-23 -30 23 -5 c13 -3 77 -10 143 -17 66 -6 124 -15 128 -19 5 -4 -45 -13
-110 -19 -65 -7 -133 -15 -151 -19 l-34 -7 36 -45 c19 -24 33 -46 31 -48 -2
-2 -24 12 -49 32 -24 20 -46 33 -49 29 -2 -4 -10 -69 -17 -143 -7 -74 -16
-141 -20 -148 -3 -8 -12 40 -19 105 -7 65 -15 135 -18 155 l-6 38 -51 -38
c-52 -37 -51 -35 1 36 l23 30 -33 5 c-17 4 -87 12 -155 18 -67 7 -119 16 -115
19 5 4 67 13 138 19 180 17 173 14 129 67 -20 25 -34 47 -32 49 2 2 23 -12 47
-31 24 -19 46 -33 47 -31 4 4 34 259 34 292 1 16 2 17 9 5 5 -8 14 -73 21
-145z"/>
</g>
</svg>
