<svg version="1.1" id="Layer_1" xmlns="http://www.w3.org/2000/svg" xmlns:xlink="http://www.w3.org/1999/xlink" x="0px" y="0px"
	 width="100%" viewBox="0 0 1090 1198" enable-background="new 0 0 1090 1198" xml:space="preserve">
<path fill="#000000" opacity="1.000000" stroke="none" 
	d="
M1.000000,463.000000 
	C1.000000,308.666656 1.000000,154.833328 1.000000,1.000000 
	C364.333344,1.000000 727.666687,1.000000 1091.000000,1.000000 
	C1091.000000,400.333344 1091.000000,799.666687 1091.000000,1199.000000 
	C727.666687,1199.000000 364.333344,1199.000000 1.000000,1199.000000 
	C1.000000,953.833313 1.000000,708.666687 1.000000,463.000000 
M722.613220,237.209412 
	C722.613220,237.209412 722.793091,237.315811 722.793091,237.315811 
	C722.793091,237.315811 722.567566,237.152466 723.109070,237.579376 
	C738.816528,251.913544 754.435974,266.346954 770.337952,280.461975 
	C772.431824,282.320618 775.969910,282.552185 778.839172,283.537292 
	C777.392761,280.944305 776.548401,277.602753 774.403748,275.877838 
	C758.620361,263.183533 742.595520,250.788574 726.571899,238.396072 
	C725.575745,237.625671 723.946777,237.673508 722.613220,237.209412 
M887.181946,381.754120 
	C887.185364,382.075745 887.188782,382.397369 887.192139,382.718964 
	C887.407837,382.373810 887.623474,382.028687 887.117004,381.553528 
	C871.043335,365.420685 855.036194,349.219971 838.786560,333.266418 
	C837.266479,331.774048 834.213623,331.842896 831.872437,331.186829 
	C832.821106,333.290253 833.229553,335.997589 834.801697,337.403992 
	C851.164124,352.041138 867.696350,366.489044 884.262817,380.895905 
	C885.085938,381.611725 886.659058,381.465240 887.181946,381.754120 
M582.017090,525.503418 
	C552.420410,559.371033 522.740540,593.166382 493.242035,627.119324 
	C391.420929,744.315918 289.487213,861.415527 187.981018,978.884460 
	C154.564301,1017.556213 122.579224,1057.436890 95.506538,1100.972412 
	C95.335175,1101.248047 95.452042,1101.703125 95.434303,1102.074341 
	C96.130280,1102.691650 96.826256,1103.308960 97.522232,1103.926392 
	C98.305542,1102.229004 98.733414,1100.214233 99.924263,1098.880981 
	C127.778053,1067.694824 155.940567,1036.781616 183.566818,1005.395935 
	C207.332855,978.395874 230.691559,951.029480 253.807617,923.470398 
	C259.614441,916.547485 263.314423,907.891602 268.845245,900.695007 
	C276.854919,890.273132 285.456146,880.284363 294.141388,870.406616 
	C349.802124,807.102844 405.426086,743.765991 461.308136,680.657837 
	C541.379944,590.231995 621.661072,499.991455 701.855530,409.674194 
	C724.862549,383.763062 747.896851,357.876007 770.837524,331.906250 
	C771.981873,330.610931 773.307495,328.345154 772.911926,327.019745 
	C771.362854,321.829651 769.156250,316.835815 767.159912,311.681122 
	C705.403564,383.007812 643.945190,453.990387 582.017090,525.503418 
M567.154297,589.645996 
	C522.059204,640.293213 477.238586,691.188171 431.800781,741.526062 
	C372.868042,806.814148 315.164764,873.201233 253.451370,935.993469 
	C221.722885,968.276611 193.049545,1003.547668 162.634857,1037.141846 
	C141.613785,1060.360474 119.975410,1083.020142 98.612862,1105.929565 
	C100.281174,1105.425293 101.760101,1104.550903 103.088989,1103.488770 
	C143.830887,1070.922852 180.196396,1033.781372 215.197266,995.300659 
	C307.243164,894.103271 398.968628,792.614563 490.940552,691.349915 
	C585.043823,587.738403 679.280457,484.247925 773.481689,380.725433 
	C783.895813,369.280792 794.461121,357.973633 805.257812,346.276093 
	C802.086609,345.395935 799.182556,345.062653 796.739746,343.821381 
	C789.981812,340.387543 785.954834,343.106049 781.306091,348.361694 
	C710.215027,428.734436 638.900513,508.909546 567.154297,589.645996 
M954.451172,1052.063965 
	C969.466492,1068.728149 984.481750,1085.392456 999.497070,1102.056641 
	C999.708923,1099.935669 999.229980,1098.223022 998.304993,1096.800537 
	C992.774780,1088.295410 987.342468,1079.716064 981.509583,1071.420044 
	C949.850952,1026.392456 914.264954,984.475708 878.278259,942.952515 
	C780.294312,829.893738 681.859802,717.225403 583.591187,604.413513 
	C582.778198,603.480225 581.789917,602.699585 580.779785,601.750183 
	C578.062378,604.794617 575.628845,607.520935 573.123047,610.328247 
	C573.842957,611.195129 574.441895,611.955688 575.081238,612.680603 
	C652.335632,700.272278 729.639954,787.820007 806.791077,875.502502 
	C816.461548,886.492981 825.594177,897.988403 834.471985,909.634033 
	C840.985474,918.178223 845.876526,928.040771 852.866211,936.126709 
	C886.312500,974.818115 920.227844,1013.104126 954.451172,1052.063965 
M760.657776,862.849365 
	C806.058899,912.543518 851.368347,962.321899 896.893677,1011.902100 
	C926.789001,1044.460083 958.471802,1075.176636 992.890076,1102.986450 
	C993.965149,1103.855103 995.241089,1104.474854 996.423401,1105.210693 
	C988.535828,1095.581299 979.913513,1087.003174 971.767395,1077.994507 
	C936.571777,1039.072754 901.787598,999.775513 866.317505,961.106689 
	C840.653198,933.127869 813.600525,906.416077 788.120483,878.275879 
	C722.030640,805.286072 656.462891,731.823608 590.699036,658.538757 
	C580.608276,647.293945 570.582520,635.990845 560.259155,624.414612 
	C557.619690,627.316345 555.286987,629.880920 552.737122,632.684204 
	C621.936584,709.294861 691.054016,785.814758 760.657776,862.849365 
M706.769836,412.260742 
	C704.995239,414.249725 703.214539,416.233337 701.446777,418.228394 
	C595.050293,538.302185 488.564331,658.296814 382.307068,778.493713 
	C343.913757,821.923645 306.063904,865.833984 267.992004,909.547791 
	C266.454529,911.312988 265.183472,913.310303 263.788330,915.199463 
	C264.139465,915.598755 264.490601,915.998047 264.841736,916.397278 
	C265.946289,915.815369 267.272675,915.455322 268.115936,914.612061 
	C271.295410,911.432861 274.384277,908.156250 277.389038,904.810120 
	C356.750061,816.429871 436.246918,728.170898 515.398254,639.603088 
	C581.004395,566.191956 646.302551,492.504639 711.520020,418.747711 
	C733.141052,394.295776 754.116333,369.271881 775.299316,344.434845 
	C777.561768,341.782135 779.235535,338.627289 781.182373,335.705414 
	C780.631348,335.261749 780.080322,334.818115 779.529297,334.374481 
	C753.735352,358.532776 731.153748,385.768860 706.769836,412.260742 
M338.742920,321.742004 
	C335.844788,318.371399 332.946686,315.000793 329.640564,311.155701 
	C327.860840,315.773254 326.606537,319.870453 324.728271,323.658295 
	C322.931549,327.281738 323.542664,329.690033 326.254700,332.734283 
	C387.081512,401.012360 447.784424,469.400787 508.514618,537.764893 
	C517.674377,548.076111 526.853210,558.370239 536.195312,568.865601 
	C539.089844,565.553406 541.669800,562.601074 543.963928,559.975952 
	C475.492523,480.508575 407.334595,401.405029 338.742920,321.742004 
M370.006592,431.505432 
	C418.598267,484.922180 467.189972,538.338928 515.992981,591.987915 
	C518.670288,588.956665 521.062561,586.248108 523.676147,583.289001 
	C522.344849,581.748230 521.179932,580.367432 519.980774,579.016968 
	C479.401184,533.316956 438.820099,487.618286 398.235291,441.922913 
	C369.372833,409.426056 340.517487,376.922791 311.588867,344.484955 
	C310.523499,343.290344 308.534515,341.830902 307.287506,342.076508 
	C302.083527,343.101593 296.998779,344.731781 291.394165,346.270874 
	C317.833710,374.937958 343.680817,402.962646 370.006592,431.505432 
M880.074036,202.573578 
	C866.346252,216.632706 852.477356,230.557510 838.931396,244.789703 
	C826.080505,258.291718 813.520691,272.072906 800.996277,285.879578 
	C799.999878,286.978058 799.419312,290.060211 800.126282,290.793884 
	C802.189514,292.935364 805.701782,296.313690 807.399597,295.708771 
	C813.998901,293.357483 820.480164,290.194183 826.301147,286.284515 
	C831.350830,282.892914 835.713806,278.334198 839.926575,273.863800 
	C878.412964,233.024292 916.801453,192.092606 955.205505,151.175629 
	C955.949890,150.382477 956.536255,149.440903 957.292358,148.441711 
	C952.622559,144.347992 948.186646,140.459305 943.760559,136.579178 
	C922.416870,158.694992 901.490051,180.378891 880.074036,202.573578 
M154.898636,138.467560 
	C153.556808,138.363281 151.719910,137.643433 150.956039,138.257782 
	C146.949905,141.479736 143.215469,145.039536 139.195816,148.653503 
	C140.507675,150.106827 141.702942,151.475876 142.945282,152.800751 
	C178.378433,190.587784 213.801392,228.384384 249.262131,266.145508 
	C260.510254,278.123322 271.410339,290.499359 288.052979,295.508698 
	C292.332123,296.796722 293.448364,293.462158 295.764191,291.849518 
	C297.893707,290.366608 298.023376,288.494446 296.167786,286.408844 
	C292.296356,282.057526 288.777985,277.376709 284.744995,273.186981 
	C241.658279,228.425842 198.499268,183.734314 154.898636,138.467560 
M89.581161,137.861801 
	C91.682159,140.637833 93.504974,143.690170 95.936287,146.138138 
	C103.250488,153.502472 116.512535,156.249847 124.366524,150.155090 
	C136.380890,140.831848 147.478882,130.243759 158.339569,119.556137 
	C163.180054,114.792793 163.032013,108.148232 158.969482,102.550697 
	C154.785324,96.785576 150.227371,91.235222 145.348923,86.045975 
	C140.163254,80.529930 133.349609,79.099411 126.056610,80.619858 
	C111.198631,83.717445 100.626343,93.047653 91.755356,104.713524 
	C83.942688,114.987617 82.558495,125.810318 89.581161,137.861801 
M1011.429688,125.883194 
	C1011.141296,122.458160 1011.658203,118.708885 1010.431396,115.661705 
	C1003.435547,98.286072 990.670227,86.743256 972.902649,81.127457 
	C963.938782,78.294281 955.754822,80.536606 949.374939,87.798866 
	C945.865173,91.794144 942.247009,95.738609 939.159424,100.050888 
	C933.145508,108.449997 932.866943,114.647629 940.123901,122.003662 
	C949.778687,131.790237 960.243774,140.853333 970.959717,149.483459 
	C975.935059,153.490387 982.503601,154.067245 989.029419,152.346130 
	C1002.330872,148.838043 1008.057617,138.906723 1011.429688,125.883194 
M760.056580,830.426208 
	C696.634766,758.467712 633.212891,686.509216 569.524719,614.248474 
	C567.496521,616.498901 565.765747,618.419250 564.080627,620.289001 
	C564.499268,620.855591 564.676636,621.141724 564.897827,621.388672 
	C642.017212,707.479126 719.129028,793.576416 796.275574,879.642517 
	C805.724304,890.183594 815.296814,900.616150 824.963318,910.957458 
	C826.843201,912.968567 829.425659,914.322876 831.684021,915.980164 
	C830.337646,913.422974 828.997314,910.862549 827.636230,908.313171 
	C827.482971,908.026123 827.213745,907.800537 826.995300,907.549011 
	C804.835693,882.020691 782.675781,856.492615 760.056580,830.426208 
M350.634277,368.853607 
	C339.499268,357.331238 329.474213,344.654053 316.447632,335.099670 
	C319.297760,344.748444 512.113037,566.226440 527.729492,578.724792 
	C529.302063,576.843628 530.875671,574.961182 532.824524,572.629883 
	C472.099304,504.720245 411.594879,437.057556 350.634277,368.853607 
M269.573120,329.711578 
	C271.385406,329.972260 273.197693,330.232971 273.758362,330.313629 
	C278.024658,333.195557 281.268311,336.700836 285.183777,337.789185 
	C297.726135,341.275543 312.339569,334.394623 318.781982,322.842377 
	C325.018677,311.659149 322.485321,296.638885 312.317871,286.717529 
	C296.739685,297.690033 282.111176,309.885986 269.317047,324.187164 
	C268.473724,325.129791 269.177124,327.456177 269.573120,329.711578 
M789.332336,290.159302 
	C787.534302,289.035187 785.736328,287.911072 783.290039,286.381653 
	C780.999695,290.481018 778.622620,294.071716 776.893738,297.951263 
	C771.130554,310.883911 775.430603,325.084198 787.254944,333.017975 
	C793.400635,337.141541 800.173523,339.025238 807.544739,338.636017 
	C813.968506,338.296875 818.971558,335.566193 821.072510,330.136322 
	C823.442505,330.269684 826.020325,330.816650 826.215454,330.355469 
	C827.022461,328.448181 827.525574,326.189911 827.301880,324.152618 
	C827.168518,322.938171 825.586304,321.771118 824.470703,320.793457 
	C812.963684,310.709015 801.419067,300.667572 789.332336,290.159302 
M213.331436,376.874451 
	C212.627502,377.799408 211.923553,378.724365 211.219604,379.649353 
	C213.203705,379.680542 214.794968,379.220490 215.926331,378.233307 
	C230.560501,365.463745 245.211227,352.710175 259.633942,339.704315 
	C262.043701,337.531311 265.870728,335.506775 264.443695,330.953308 
	C261.317688,332.368622 257.505310,333.072113 255.178238,335.316010 
	C241.199219,348.795288 227.561310,362.628326 213.331436,376.874451 
M327.981903,270.502563 
	C325.994171,272.268829 323.694336,273.795044 322.102081,275.865448 
	C320.331573,278.167694 319.205719,280.965790 317.799255,283.548004 
	C320.534637,282.651062 323.908081,282.484406 325.903748,280.740784 
	C340.911469,267.628601 355.655853,254.214706 370.443787,240.852173 
	C371.135437,240.227219 371.458344,239.194229 371.953003,238.351273 
	C371.532745,237.930862 371.112518,237.510468 370.692261,237.090057 
	C356.630524,248.068283 342.568787,259.046509 327.981903,270.502563 
z"/>
<path fill="#F7F7F7" opacity="1.000000" stroke="none" 
	d="
M582.251953,525.238159 
	C643.945190,453.990387 705.403564,383.007812 767.159912,311.681122 
	C769.156250,316.835815 771.362854,321.829651 772.911926,327.019745 
	C773.307495,328.345154 771.981873,330.610931 770.837524,331.906250 
	C747.896851,357.876007 724.862549,383.763062 701.855530,409.674194 
	C621.661072,499.991455 541.379944,590.231995 461.308136,680.657837 
	C405.426086,743.765991 349.802124,807.102844 294.141388,870.406616 
	C285.456146,880.284363 276.854919,890.273132 268.845245,900.695007 
	C263.314423,907.891602 259.614441,916.547485 253.807617,923.470398 
	C230.691559,951.029480 207.332855,978.395874 183.566818,1005.395935 
	C155.940567,1036.781616 127.778053,1067.694824 99.924263,1098.880981 
	C98.733414,1100.214233 98.305542,1102.229004 97.522232,1103.926392 
	C96.826256,1103.308960 96.130280,1102.691650 95.434303,1102.074341 
	C95.452042,1101.703125 95.335175,1101.248047 95.506538,1100.972412 
	C122.579224,1057.436890 154.564301,1017.556213 187.981018,978.884460 
	C289.487213,861.415527 391.420929,744.315918 493.242035,627.119324 
	C522.740540,593.166382 552.420410,559.371033 582.251953,525.238159 
z"/>
<path fill="#F7F7F7" opacity="1.000000" stroke="none" 
	d="
M567.396179,589.388367 
	C638.900513,508.909546 710.215027,428.734436 781.306091,348.361694 
	C785.954834,343.106049 789.981812,340.387543 796.739746,343.821381 
	C799.182556,345.062653 802.086609,345.395935 805.257812,346.276093 
	C794.461121,357.973633 783.895813,369.280792 773.481689,380.725433 
	C679.280457,484.247925 585.043823,587.738403 490.940552,691.349915 
	C398.968628,792.614563 307.243164,894.103271 215.197266,995.300659 
	C180.196396,1033.781372 143.830887,1070.922852 103.088989,1103.488770 
	C101.760101,1104.550903 100.281174,1105.425293 98.612862,1105.929565 
	C119.975410,1083.020142 141.613785,1060.360474 162.634857,1037.141846 
	C193.049545,1003.547668 221.722885,968.276611 253.451370,935.993469 
	C315.164764,873.201233 372.868042,806.814148 431.800781,741.526062 
	C477.238586,691.188171 522.059204,640.293213 567.396179,589.388367 
z"/>
<path fill="#F7F7F7" opacity="1.000000" stroke="none" 
	d="
M954.213806,1051.799072 
	C920.227844,1013.104126 886.312500,974.818115 852.866211,936.126709 
	C845.876526,928.040771 840.985474,918.178223 834.471985,909.634033 
	C825.594177,897.988403 816.461548,886.492981 806.791077,875.502502 
	C729.639954,787.820007 652.335632,700.272278 575.081238,612.680603 
	C574.441895,611.955688 573.842957,611.195129 573.123047,610.328247 
	C575.628845,607.520935 578.062378,604.794617 580.779785,601.750183 
	C581.789917,602.699585 582.778198,603.480225 583.591187,604.413513 
	C681.859802,717.225403 780.294312,829.893738 878.278259,942.952515 
	C914.264954,984.475708 949.850952,1026.392456 981.509583,1071.420044 
	C987.342468,1079.716064 992.774780,1088.295410 998.304993,1096.800537 
	C999.229980,1098.223022 999.708923,1099.935669 999.497070,1102.056641 
	C984.481750,1085.392456 969.466492,1068.728149 954.213806,1051.799072 
z"/>
<path fill="#F6F6F6" opacity="1.000000" stroke="none" 
	d="
M760.414673,862.591980 
	C691.054016,785.814758 621.936584,709.294861 552.737122,632.684204 
	C555.286987,629.880920 557.619690,627.316345 560.259155,624.414612 
	C570.582520,635.990845 580.608276,647.293945 590.699036,658.538757 
	C656.462891,731.823608 722.030640,805.286072 788.120483,878.275879 
	C813.600525,906.416077 840.653198,933.127869 866.317505,961.106689 
	C901.787598,999.775513 936.571777,1039.072754 971.767395,1077.994507 
	C979.913513,1087.003174 988.535828,1095.581299 996.423401,1105.210693 
	C995.241089,1104.474854 993.965149,1103.855103 992.890076,1102.986450 
	C958.471802,1075.176636 926.789001,1044.460083 896.893677,1011.902100 
	C851.368347,962.321899 806.058899,912.543518 760.414673,862.591980 
z"/>
<path fill="#F4F4F4" opacity="1.000000" stroke="none" 
	d="
M707.000854,411.990784 
	C731.153748,385.768860 753.735352,358.532776 779.529297,334.374481 
	C780.080322,334.818115 780.631348,335.261749 781.182373,335.705414 
	C779.235535,338.627289 777.561768,341.782135 775.299316,344.434845 
	C754.116333,369.271881 733.141052,394.295776 711.520020,418.747711 
	C646.302551,492.504639 581.004395,566.191956 515.398254,639.603088 
	C436.246918,728.170898 356.750061,816.429871 277.389038,904.810120 
	C274.384277,908.156250 271.295410,911.432861 268.115936,914.612061 
	C267.272675,915.455322 265.946289,915.815369 264.841736,916.397278 
	C264.490601,915.998047 264.139465,915.598755 263.788330,915.199463 
	C265.183472,913.310303 266.454529,911.312988 267.992004,909.547791 
	C306.063904,865.833984 343.913757,821.923645 382.307068,778.493713 
	C488.564331,658.296814 595.050293,538.302185 701.446777,418.228394 
	C703.214539,416.233337 704.995239,414.249725 707.000854,411.990784 
z"/>
<path fill="#F8F8F8" opacity="1.000000" stroke="none" 
	d="
M338.959778,322.021729 
	C407.334595,401.405029 475.492523,480.508575 543.963928,559.975952 
	C541.669800,562.601074 539.089844,565.553406 536.195312,568.865601 
	C526.853210,558.370239 517.674377,548.076111 508.514618,537.764893 
	C447.784424,469.400787 387.081512,401.012360 326.254700,332.734283 
	C323.542664,329.690033 322.931549,327.281738 324.728271,323.658295 
	C326.606537,319.870453 327.860840,315.773254 329.640564,311.155701 
	C332.946686,315.000793 335.844788,318.371399 338.959778,322.021729 
z"/>
<path fill="#F7F7F7" opacity="1.000000" stroke="none" 
	d="
M369.767273,431.246399 
	C343.680817,402.962646 317.833710,374.937958 291.394165,346.270874 
	C296.998779,344.731781 302.083527,343.101593 307.287506,342.076508 
	C308.534515,341.830902 310.523499,343.290344 311.588867,344.484955 
	C340.517487,376.922791 369.372833,409.426056 398.235291,441.922913 
	C438.820099,487.618286 479.401184,533.316956 519.980774,579.016968 
	C521.179932,580.367432 522.344849,581.748230 523.676147,583.289001 
	C521.062561,586.248108 518.670288,588.956665 515.992981,591.987915 
	C467.189972,538.338928 418.598267,484.922180 369.767273,431.246399 
z"/>
<path fill="#F9F9F9" opacity="1.000000" stroke="none" 
	d="
M880.318604,202.318192 
	C901.490051,180.378891 922.416870,158.694992 943.760559,136.579178 
	C948.186646,140.459305 952.622559,144.347992 957.292358,148.441711 
	C956.536255,149.440903 955.949890,150.382477 955.205505,151.175629 
	C916.801453,192.092606 878.412964,233.024292 839.926575,273.863800 
	C835.713806,278.334198 831.350830,282.892914 826.301147,286.284515 
	C820.480164,290.194183 813.998901,293.357483 807.399597,295.708771 
	C805.701782,296.313690 802.189514,292.935364 800.126282,290.793884 
	C799.419312,290.060211 799.999878,286.978058 800.996277,285.879578 
	C813.520691,272.072906 826.080505,258.291718 838.931396,244.789703 
	C852.477356,230.557510 866.346252,216.632706 880.318604,202.318192 
z"/>
<path fill="#F9F9F9" opacity="1.000000" stroke="none" 
	d="
M155.129364,138.745605 
	C198.499268,183.734314 241.658279,228.425842 284.744995,273.186981 
	C288.777985,277.376709 292.296356,282.057526 296.167786,286.408844 
	C298.023376,288.494446 297.893707,290.366608 295.764191,291.849518 
	C293.448364,293.462158 292.332123,296.796722 288.052979,295.508698 
	C271.410339,290.499359 260.510254,278.123322 249.262131,266.145508 
	C213.801392,228.384384 178.378433,190.587784 142.945282,152.800751 
	C141.702942,151.475876 140.507675,150.106827 139.195816,148.653503 
	C143.215469,145.039536 146.949905,141.479736 150.956039,138.257782 
	C151.719910,137.643433 153.556808,138.363281 155.129364,138.745605 
z"/>
<path fill="#F8F8F8" opacity="1.000000" stroke="none" 
	d="
M89.372375,137.556396 
	C82.558495,125.810318 83.942688,114.987617 91.755356,104.713524 
	C100.626343,93.047653 111.198631,83.717445 126.056610,80.619858 
	C133.349609,79.099411 140.163254,80.529930 145.348923,86.045975 
	C150.227371,91.235222 154.785324,96.785576 158.969482,102.550697 
	C163.032013,108.148232 163.180054,114.792793 158.339569,119.556137 
	C147.478882,130.243759 136.380890,140.831848 124.366524,150.155090 
	C116.512535,156.249847 103.250488,153.502472 95.936287,146.138138 
	C93.504974,143.690170 91.682159,140.637833 89.372375,137.556396 
M139.503586,116.494957 
	C139.811569,102.317070 125.596947,95.560204 113.868500,98.208603 
	C111.317490,98.784645 108.597801,100.555565 106.892059,102.569252 
	C101.746391,108.643875 101.653793,118.952209 106.159744,126.006378 
	C109.932228,131.912277 119.618332,135.045929 128.119751,133.110855 
	C134.503250,131.657852 138.235825,126.454582 139.503586,116.494957 
z"/>
<path fill="#F8F8F8" opacity="1.000000" stroke="none" 
	d="
M1011.331421,126.292786 
	C1008.057617,138.906723 1002.330872,148.838043 989.029419,152.346130 
	C982.503601,154.067245 975.935059,153.490387 970.959717,149.483459 
	C960.243774,140.853333 949.778687,131.790237 940.123901,122.003662 
	C932.866943,114.647629 933.145508,108.449997 939.159424,100.050888 
	C942.247009,95.738609 945.865173,91.794144 949.374939,87.798866 
	C955.754822,80.536606 963.938782,78.294281 972.902649,81.127457 
	C990.670227,86.743256 1003.435547,98.286072 1010.431396,115.661705 
	C1011.658203,118.708885 1011.141296,122.458160 1011.331421,126.292786 
M958.155579,123.015327 
	C962.922424,133.181046 970.286316,136.087997 981.557678,132.253571 
	C990.557190,129.192032 995.282166,120.543945 993.231995,110.831238 
	C992.050720,105.234741 989.989197,100.101379 983.846252,98.452271 
	C975.936340,96.328812 968.524109,97.806580 962.463623,103.412010 
	C956.923462,108.536194 955.937927,115.112198 958.155579,123.015327 
z"/>
<path fill="#F3F3F3" opacity="1.000000" stroke="none" 
	d="
M760.286194,830.695374 
	C782.675781,856.492615 804.835693,882.020691 826.995300,907.549011 
	C827.213745,907.800537 827.482971,908.026123 827.636230,908.313171 
	C828.997314,910.862549 830.337646,913.422974 831.684021,915.980164 
	C829.425659,914.322876 826.843201,912.968567 824.963318,910.957458 
	C815.296814,900.616150 805.724304,890.183594 796.275574,879.642517 
	C719.129028,793.576416 642.017212,707.479126 564.897827,621.388672 
	C564.676636,621.141724 564.499268,620.855591 564.080627,620.289001 
	C565.765747,618.419250 567.496521,616.498901 569.524719,614.248474 
	C633.212891,686.509216 696.634766,758.467712 760.286194,830.695374 
z"/>
<path fill="#F4F4F4" opacity="1.000000" stroke="none" 
	d="
M350.862366,369.124237 
	C411.594879,437.057556 472.099304,504.720245 532.824524,572.629883 
	C530.875671,574.961182 529.302063,576.843628 527.729492,578.724792 
	C512.113037,566.226440 319.297760,344.748444 316.447632,335.099670 
	C329.474213,344.654053 339.499268,357.331238 350.862366,369.124237 
z"/>
<path fill="#F9F9F9" opacity="1.000000" stroke="none" 
	d="
M269.367126,329.425232 
	C269.177124,327.456177 268.473724,325.129791 269.317047,324.187164 
	C282.111176,309.885986 296.739685,297.690033 312.317871,286.717529 
	C322.485321,296.638885 325.018677,311.659149 318.781982,322.842377 
	C312.339569,334.394623 297.726135,341.275543 285.183777,337.789185 
	C281.268311,336.700836 278.024658,333.195557 273.758362,330.313629 
	C273.197693,330.232971 271.385406,329.972260 269.367126,329.425232 
z"/>
<path fill="#F9F9F9" opacity="1.000000" stroke="none" 
	d="
M789.608643,290.386719 
	C801.419067,300.667572 812.963684,310.709015 824.470703,320.793457 
	C825.586304,321.771118 827.168518,322.938171 827.301880,324.152618 
	C827.525574,326.189911 827.022461,328.448181 826.215454,330.355469 
	C826.020325,330.816650 823.442505,330.269684 821.072510,330.136322 
	C818.971558,335.566193 813.968506,338.296875 807.544739,338.636017 
	C800.173523,339.025238 793.400635,337.141541 787.254944,333.017975 
	C775.430603,325.084198 771.130554,310.883911 776.893738,297.951263 
	C778.622620,294.071716 780.999695,290.481018 783.290039,286.381653 
	C785.736328,287.911072 787.534302,289.035187 789.608643,290.386719 
z"/>
<path fill="#F0F0F0" opacity="1.000000" stroke="none" 
	d="
M887.882935,381.720306 
	C886.659058,381.465240 885.085938,381.611725 884.262817,380.895905 
	C867.696350,366.489044 851.164124,352.041138 834.801697,337.403992 
	C833.229553,335.997589 832.821106,333.290253 831.872437,331.186829 
	C834.213623,331.842896 837.266479,331.774048 838.786560,333.266418 
	C855.036194,349.219971 871.043335,365.420685 887.454468,381.652649 
	C887.791870,381.751770 887.882935,381.720306 887.882935,381.720306 
z"/>
<path fill="#F3F3F3" opacity="1.000000" stroke="none" 
	d="
M213.570282,376.608673 
	C227.561310,362.628326 241.199219,348.795288 255.178238,335.316010 
	C257.505310,333.072113 261.317688,332.368622 264.443695,330.953308 
	C265.870728,335.506775 262.043701,337.531311 259.633942,339.704315 
	C245.211227,352.710175 230.560501,365.463745 215.926331,378.233307 
	C214.794968,379.220490 213.203705,379.680542 211.219604,379.649353 
	C211.923553,378.724365 212.627502,377.799408 213.570282,376.608673 
z"/>
<path fill="#F0F0F0" opacity="1.000000" stroke="none" 
	d="
M328.244476,270.263672 
	C342.568787,259.046509 356.630524,248.068283 370.692261,237.090057 
	C371.112518,237.510468 371.532745,237.930862 371.953003,238.351273 
	C371.458344,239.194229 371.135437,240.227219 370.443787,240.852173 
	C355.655853,254.214706 340.911469,267.628601 325.903748,280.740784 
	C323.908081,282.484406 320.534637,282.651062 317.799255,283.548004 
	C319.205719,280.965790 320.331573,278.167694 322.102081,275.865448 
	C323.694336,273.795044 325.994171,272.268829 328.244476,270.263672 
z"/>
<path fill="#F1F1F1" opacity="1.000000" stroke="none" 
	d="
M722.612244,237.340668 
	C723.946777,237.673508 725.575745,237.625671 726.571899,238.396072 
	C742.595520,250.788574 758.620361,263.183533 774.403748,275.877838 
	C776.548401,277.602753 777.392761,280.944305 778.839111,283.537292 
	C775.969910,282.552185 772.431824,282.320618 770.337952,280.461975 
	C754.435974,266.346954 738.816528,251.913544 722.877441,237.406342 
	C722.645874,237.233292 722.612244,237.340683 722.612244,237.340668 
z"/>
<path fill="#F1F1F1" opacity="1.000000" stroke="none" 
	d="
M722.606689,237.192871 
	C722.567566,237.152466 722.793091,237.315811 722.793091,237.315811 
	C722.793091,237.315811 722.613220,237.209412 722.612732,237.275055 
	C722.612244,237.340683 722.645874,237.233292 722.606689,237.192871 
z"/>
<path fill="#F0F0F0" opacity="1.000000" stroke="none" 
	d="
M887.815552,381.717651 
	C887.623474,382.028687 887.407837,382.373810 887.192139,382.718994 
	C887.188782,382.397369 887.185364,382.075745 887.532471,381.737213 
	C887.882935,381.720306 887.791870,381.751770 887.815552,381.717651 
z"/>
<path fill="#080808" opacity="1.000000" stroke="none" 
	d="
M139.484741,116.894547 
	C138.235825,126.454582 134.503250,131.657852 128.119751,133.110855 
	C119.618332,135.045929 109.932228,131.912277 106.159744,126.006378 
	C101.653793,118.952209 101.746391,108.643875 106.892059,102.569252 
	C108.597801,100.555565 111.317490,98.784645 113.868500,98.208603 
	C125.596947,95.560204 139.811569,102.317070 139.484741,116.894547 
M126.091454,104.052330 
	C121.125717,101.978424 116.545288,102.435547 112.934723,106.643913 
	C109.065422,111.153854 108.965088,116.433266 111.062576,121.678207 
	C113.110931,126.800278 117.848228,127.008026 122.426872,126.987381 
	C127.798752,126.963173 132.834061,122.797264 134.371689,117.342712 
	C135.837021,112.144630 133.738632,108.537903 126.091454,104.052330 
z"/>
<path fill="#0B0B0B" opacity="1.000000" stroke="none" 
	d="
M958.064758,122.622787 
	C955.937927,115.112198 956.923462,108.536194 962.463623,103.412010 
	C968.524109,97.806580 975.936340,96.328812 983.846252,98.452271 
	C989.989197,100.101379 992.050720,105.234741 993.231995,110.831238 
	C995.282166,120.543945 990.557190,129.192032 981.557678,132.253571 
	C970.286316,136.087997 962.922424,133.181046 958.064758,122.622787 
M966.596619,124.021111 
	C973.421570,128.736298 982.574646,127.767387 985.442139,122.026154 
	C988.375549,116.152802 986.720642,108.436913 981.765930,104.885902 
	C976.877258,101.382202 969.663818,102.694023 964.662964,107.996223 
	C960.556702,112.349937 961.007446,117.421410 966.596619,124.021111 
z"/>
<path fill="#F7F7F7" opacity="1.000000" stroke="none" 
	d="
M126.452835,104.202629 
	C133.738632,108.537903 135.837021,112.144630 134.371689,117.342712 
	C132.834061,122.797264 127.798752,126.963173 122.426872,126.987381 
	C117.848228,127.008026 113.110931,126.800278 111.062576,121.678207 
	C108.965088,116.433266 109.065422,111.153854 112.934723,106.643913 
	C116.545288,102.435547 121.125717,101.978424 126.452835,104.202629 
z"/>
<path fill="#F7F7F7" opacity="1.000000" stroke="none" 
	d="
M966.319092,123.764114 
	C961.007446,117.421410 960.556702,112.349937 964.662964,107.996223 
	C969.663818,102.694023 976.877258,101.382202 981.765930,104.885902 
	C986.720642,108.436913 988.375549,116.152802 985.442139,122.026154 
	C982.574646,127.767387 973.421570,128.736298 966.319092,123.764114 
z"/>
</svg>